<?xml version="1.0" encoding="UTF-8"?>
<svg width="512" height="512" viewBox="0 0 512 512" fill="none" xmlns="http://www.w3.org/2000/svg">
    <rect width="512" height="512" rx="128" fill="#4F46E5"/>
    <path d="M256 128C176.5 128 112 192.5 112 272C112 351.5 176.5 416 256 416C335.5 416 400 351.5 400 272C400 192.5 335.5 128 256 128ZM256 368C203.2 368 160 324.8 160 272C160 219.2 203.2 176 256 176C308.8 176 352 219.2 352 272C352 324.8 308.8 368 256 368Z" fill="white"/>
    <path d="M256 208C221.2 208 192 237.2 192 272C192 306.8 221.2 336 256 336C290.8 336 320 306.8 320 272C320 237.2 290.8 208 256 208ZM256 304C238.4 304 224 289.6 224 272C224 254.4 238.4 240 256 240C273.6 240 288 254.4 288 272C288 289.6 273.6 304 256 304Z" fill="white"/>
</svg> 